<?xml version="1.0" standalone="no"?>
<!DOCTYPE svg PUBLIC "-//W3C//DTD SVG 20010904//EN"
 "http://www.w3.org/TR/2001/REC-SVG-20010904/DTD/svg10.dtd">
<svg version="1.0" xmlns="http://www.w3.org/2000/svg"
 viewBox="0 0 2600.000000 2600.000000"
 preserveAspectRatio="xMidYMid meet">
<metadata>
Created by potrace 1.15, written by Peter Selinger 2001-2017
</metadata>
<g transform="translate(0.000000,2600.000000) scale(0.100000,-0.100000)"
fill="#000000" stroke="none">
<path d="M12140 21119 c-1684 -103 -3309 -687 -4665 -1677 -1768 -1291 -2996
-3178 -3449 -5302 -189 -887 -241 -1831 -151 -2735 173 -1728 833 -3334 1927
-4686 1054 -1305 2479 -2295 4061 -2824 743 -248 1455 -388 2242 -440 265 -17
834 -20 1088 -5 1217 73 2365 379 3442 918 2443 1222 4194 3511 4724 6177 406
2043 83 4174 -906 5975 -539 982 -1247 1844 -2103 2561 -716 599 -1569 1105
-2435 1444 -872 341 -1756 535 -2715 595 -190 12 -861 11 -1060 -1z m1172
-1670 c778 -53 1441 -260 1843 -574 424 -332 591 -762 505 -1303 l-23 -144
-227 -301 c-890 -1184 -1845 -2601 -2625 -3894 -54 -90 -101 -163 -104 -163
-3 1 -35 49 -70 108 -721 1206 -1748 2736 -2601 3872 -192 257 -200 267 -180
255 9 -6 11 0 6 21 -52 238 -69 508 -42 663 68 391 320 702 771 953 468 261
1197 449 1960 507 163 12 612 13 787 0z m-4343 -1635 c229 -43 433 -146 645
-326 l98 -83 118 -280 c540 -1285 1313 -2876 2043 -4205 l135 -245 -82 -2
c-1108 -29 -1624 -52 -2446 -109 -804 -55 -1660 -135 -2387 -224 -180 -22
-189 -23 -179 -13 3 4 -48 26 -115 49 -135 48 -315 132 -399 186 -265 172
-432 433 -512 798 -20 95 -22 132 -23 380 0 216 4 300 18 390 86 551 270 1107
555 1677 195 389 450 774 728 1099 125 146 356 373 484 476 455 365 904 512
1319 432z m7854 -134 c381 -85 772 -323 1176 -715 491 -477 898 -1033 1191
-1626 239 -485 381 -929 436 -1359 22 -179 15 -499 -15 -638 -85 -399 -277
-675 -607 -873 -84 -51 -320 -153 -382 -165 -15 -3 -155 11 -312 30 -1425 178
-3141 301 -4627 332 -178 4 -323 9 -323 12 0 2 71 136 159 296 743 1363 1497
2915 2024 4170 30 71 56 124 58 117 3 -7 43 22 94 66 270 232 477 338 725 373
95 13 301 3 403 -20z m-9958 -5420 c108 -17 732 -88 1090 -124 1255 -127 2361
-195 3801 -234 l251 -7 -170 -310 c-662 -1212 -1368 -2655 -1884 -3850 -71
-165 -142 -331 -158 -368 -16 -37 -31 -64 -34 -58 -3 5 -59 -35 -124 -89 -155
-129 -248 -192 -360 -245 -111 -52 -158 -68 -268 -92 -113 -24 -322 -24 -443
1 -418 83 -856 360 -1321 837 -441 453 -800 959 -1075 1514 -220 445 -358 856
-422 1255 -19 123 -23 181 -23 385 1 221 3 250 27 361 107 492 377 799 870
989 120 46 148 50 243 35z m11585 -19 c0 -5 37 -22 83 -37 281 -93 502 -222
643 -377 399 -438 436 -1190 107 -2192 -243 -742 -615 -1418 -1079 -1961 -121
-142 -375 -392 -494 -488 -283 -226 -599 -383 -874 -433 -121 -22 -325 -22
-439 1 -234 45 -439 150 -663 337 l-80 68 -89 213 c-513 1233 -1280 2820
-2017 4171 -105 192 -188 350 -187 351 2 2 209 8 459 15 1183 30 2363 105
3525 221 376 38 994 106 1025 114 31 8 80 6 80 -3z m-5650 -928 c765 -1267
1784 -2777 2627 -3892 68 -90 116 -161 107 -157 -13 5 -15 2 -10 -19 35 -141
51 -281 51 -465 0 -182 -2 -202 -28 -295 -33 -121 -117 -295 -188 -390 -304
-405 -899 -701 -1751 -870 -938 -186 -1943 -146 -2693 108 -251 85 -437 174
-625 301 -126 84 -334 287 -402 391 -196 301 -251 616 -179 1016 l19 105 214
285 c862 1143 1867 2630 2608 3861 69 115 128 208 131 208 3 0 57 -84 119
-187z"/>
</g>
</svg>
